An American family visiting their Irish roots accidentally stumbles on a horde of bloodthirsty mutant children.

Josslyn DeCrosta..............Molly Monohan
Erica Rhodes..................Jessica Monohan
David Lombard.................Jerry Monohan
Lindsay Goranson..............Annette Rothman
James Warke...................Robin
Catherine McMorrow............Agnes Brawney
Elizabeth Bove................Sheila
Michael Donaldson.............Chap
 
http://www.imdb.com/title/tt1118687/
 
http://www.youtube.com/watch?v=OMv6Kysi3q0&feature=player_embedded


General
Complete name : Plague Town 2008 DVDRip Xvid BigPerm LKRG\PlagueTown_LKRG.avi
Format : AVI
Format/Info : Audio Video Interleave
File size : 816 MiB
Duration : 1h 25mn
Overall bit rate : 1 341 Kbps

Video
ID : 0
Format : MPEG-4 Visual
Format profile : Advanced Simple@L5
Format settings, BVOP : Yes
Format settings, QPel : No
Format settings, GMC : No warppoints
Format settings, Matrix : Default (H.263)
Codec ID : XVID
Codec ID/Hint : XviD
Duration : 1h 25mn
Bit rate : 888 Kbps
Width : 720 pixels
Height : 404 pixels
Display aspect ratio : 16:9
Frame rate : 23.976 fps
Color space : YUV
Chroma subsampling : 4:2:0
Bit depth : 8 bits
Scan type : Progressive
Bits/(Pixel*Frame) : 0.127
Stream size : 540 MiB (66%)
Writing library : XviD 1.2.1 (UTC 2008-12-04)

Audio
ID : 1
Format : AC-3
Format/Info : Audio Coding 3
Mode extension : CM (complete main)
Codec ID : 2000
Duration : 1h 25mn
Bit rate mode : Constant
Bit rate : 448 Kbps
Channel(s) : 6 channels
Channel positions : Front: L C R, Side: L R, LFE
Sampling rate : 48.0 KHz
Bit depth : 16 bits
Video delay : 42ms
Stream size : 272 MiB (33%)
Alignment : Split accross interleaves
Interleave, duration : 500 ms (11.99 video frames)
Interleave, preload duration : 500 ms
Language : English

thanks to BigPerm :)